<mxfile host="Electron" modified="2024-01-02T18:25:52.733Z" agent="Mozilla/5.0 (Windows NT 10.0; Win64; x64) AppleWebKit/537.36 (KHTML, like Gecko) draw.io/22.0.0 Chrome/114.0.5735.289 Electron/25.8.3 Safari/537.36" etag="sN1P5KIBBWchqnbi5xzl" version="22.0.0" type="device">
  <diagram name="Page-1" id="ctSU2Plk_UWXI0dnWDSY">
    <mxGraphModel dx="1723" dy="1007" grid="1" gridSize="10" guides="1" tooltips="1" connect="1" arrows="1" fold="1" page="1" pageScale="1" pageWidth="1169" pageHeight="827" math="0" shadow="0">
      <root>
        <mxCell id="0" />
        <mxCell id="1" parent="0" />
        <mxCell id="eNsB-PMLN9mRBoNj7WUG-65" value="" style="shape=partialRectangle;whiteSpace=wrap;html=1;bottom=1;right=1;left=1;top=0;fillColor=none;routingCenterX=-0.5;" vertex="1" parent="1">
          <mxGeometry x="155" y="917" width="820" height="60" as="geometry" />
        </mxCell>
        <mxCell id="eNsB-PMLN9mRBoNj7WUG-1" value="" style="endArrow=none;html=1;rounded=0;" edge="1" parent="1">
          <mxGeometry width="50" height="50" relative="1" as="geometry">
            <mxPoint x="160" y="200" as="sourcePoint" />
            <mxPoint x="240" y="200" as="targetPoint" />
          </mxGeometry>
        </mxCell>
        <mxCell id="eNsB-PMLN9mRBoNj7WUG-8" value="&lt;font style=&quot;font-size: 35px;&quot;&gt;1&lt;/font&gt;" style="edgeLabel;html=1;align=center;verticalAlign=middle;resizable=0;points=[];" vertex="1" connectable="0" parent="eNsB-PMLN9mRBoNj7WUG-1">
          <mxGeometry x="0.2417" y="1" relative="1" as="geometry">
            <mxPoint x="-10" y="-29" as="offset" />
          </mxGeometry>
        </mxCell>
        <mxCell id="eNsB-PMLN9mRBoNj7WUG-11" value="" style="endArrow=none;html=1;rounded=0;" edge="1" parent="1">
          <mxGeometry width="50" height="50" relative="1" as="geometry">
            <mxPoint x="280" y="200" as="sourcePoint" />
            <mxPoint x="360" y="200" as="targetPoint" />
          </mxGeometry>
        </mxCell>
        <mxCell id="eNsB-PMLN9mRBoNj7WUG-12" value="&lt;font style=&quot;font-size: 35px;&quot;&gt;2&lt;/font&gt;" style="edgeLabel;html=1;align=center;verticalAlign=middle;resizable=0;points=[];" vertex="1" connectable="0" parent="eNsB-PMLN9mRBoNj7WUG-11">
          <mxGeometry x="0.2417" y="1" relative="1" as="geometry">
            <mxPoint x="-10" y="-29" as="offset" />
          </mxGeometry>
        </mxCell>
        <mxCell id="eNsB-PMLN9mRBoNj7WUG-13" value="" style="endArrow=none;html=1;rounded=0;" edge="1" parent="1">
          <mxGeometry width="50" height="50" relative="1" as="geometry">
            <mxPoint x="400" y="200" as="sourcePoint" />
            <mxPoint x="480" y="200" as="targetPoint" />
          </mxGeometry>
        </mxCell>
        <mxCell id="eNsB-PMLN9mRBoNj7WUG-14" value="&lt;font style=&quot;font-size: 35px;&quot;&gt;3&lt;/font&gt;" style="edgeLabel;html=1;align=center;verticalAlign=middle;resizable=0;points=[];" vertex="1" connectable="0" parent="eNsB-PMLN9mRBoNj7WUG-13">
          <mxGeometry x="0.2417" y="1" relative="1" as="geometry">
            <mxPoint x="-10" y="-29" as="offset" />
          </mxGeometry>
        </mxCell>
        <mxCell id="eNsB-PMLN9mRBoNj7WUG-15" value="" style="endArrow=none;html=1;rounded=0;" edge="1" parent="1">
          <mxGeometry width="50" height="50" relative="1" as="geometry">
            <mxPoint x="520" y="200" as="sourcePoint" />
            <mxPoint x="600" y="200" as="targetPoint" />
          </mxGeometry>
        </mxCell>
        <mxCell id="eNsB-PMLN9mRBoNj7WUG-16" value="&lt;font style=&quot;font-size: 35px;&quot;&gt;4&lt;/font&gt;" style="edgeLabel;html=1;align=center;verticalAlign=middle;resizable=0;points=[];" vertex="1" connectable="0" parent="eNsB-PMLN9mRBoNj7WUG-15">
          <mxGeometry x="0.2417" y="1" relative="1" as="geometry">
            <mxPoint x="-10" y="-29" as="offset" />
          </mxGeometry>
        </mxCell>
        <mxCell id="eNsB-PMLN9mRBoNj7WUG-17" value="" style="endArrow=none;html=1;rounded=0;" edge="1" parent="1">
          <mxGeometry width="50" height="50" relative="1" as="geometry">
            <mxPoint x="640" y="200" as="sourcePoint" />
            <mxPoint x="720" y="200" as="targetPoint" />
          </mxGeometry>
        </mxCell>
        <mxCell id="eNsB-PMLN9mRBoNj7WUG-18" value="&lt;font style=&quot;font-size: 35px;&quot;&gt;4&lt;/font&gt;" style="edgeLabel;html=1;align=center;verticalAlign=middle;resizable=0;points=[];" vertex="1" connectable="0" parent="eNsB-PMLN9mRBoNj7WUG-17">
          <mxGeometry x="0.2417" y="1" relative="1" as="geometry">
            <mxPoint x="-10" y="-29" as="offset" />
          </mxGeometry>
        </mxCell>
        <mxCell id="eNsB-PMLN9mRBoNj7WUG-19" value="" style="endArrow=none;html=1;rounded=0;" edge="1" parent="1">
          <mxGeometry width="50" height="50" relative="1" as="geometry">
            <mxPoint x="760" y="200" as="sourcePoint" />
            <mxPoint x="840" y="200" as="targetPoint" />
          </mxGeometry>
        </mxCell>
        <mxCell id="eNsB-PMLN9mRBoNj7WUG-20" value="&lt;font style=&quot;font-size: 35px;&quot;&gt;4&lt;/font&gt;" style="edgeLabel;html=1;align=center;verticalAlign=middle;resizable=0;points=[];" vertex="1" connectable="0" parent="eNsB-PMLN9mRBoNj7WUG-19">
          <mxGeometry x="0.2417" y="1" relative="1" as="geometry">
            <mxPoint x="-10" y="-29" as="offset" />
          </mxGeometry>
        </mxCell>
        <mxCell id="eNsB-PMLN9mRBoNj7WUG-21" value="" style="endArrow=none;html=1;rounded=0;" edge="1" parent="1">
          <mxGeometry width="50" height="50" relative="1" as="geometry">
            <mxPoint x="880" y="200" as="sourcePoint" />
            <mxPoint x="960" y="200" as="targetPoint" />
          </mxGeometry>
        </mxCell>
        <mxCell id="eNsB-PMLN9mRBoNj7WUG-22" value="&lt;font style=&quot;font-size: 35px;&quot;&gt;4&lt;/font&gt;" style="edgeLabel;html=1;align=center;verticalAlign=middle;resizable=0;points=[];" vertex="1" connectable="0" parent="eNsB-PMLN9mRBoNj7WUG-21">
          <mxGeometry x="0.2417" y="1" relative="1" as="geometry">
            <mxPoint x="-10" y="-29" as="offset" />
          </mxGeometry>
        </mxCell>
        <mxCell id="eNsB-PMLN9mRBoNj7WUG-24" value="&lt;font style=&quot;font-size: 19px;&quot;&gt;&lt;b&gt;Resultados ao primeiro item da escala de empatia, ordenados por ordem crescente&lt;/b&gt;&lt;/font&gt;" style="text;html=1;strokeColor=none;fillColor=none;align=center;verticalAlign=middle;whiteSpace=wrap;rounded=0;" vertex="1" parent="1">
          <mxGeometry x="160" y="30" width="800" height="40" as="geometry" />
        </mxCell>
        <mxCell id="eNsB-PMLN9mRBoNj7WUG-25" value="" style="shape=flexArrow;endArrow=classic;html=1;rounded=0;" edge="1" parent="1">
          <mxGeometry width="50" height="50" relative="1" as="geometry">
            <mxPoint x="559.41" y="280" as="sourcePoint" />
            <mxPoint x="559.41" y="210" as="targetPoint" />
          </mxGeometry>
        </mxCell>
        <mxCell id="eNsB-PMLN9mRBoNj7WUG-26" value="&lt;font style=&quot;font-size: 22px;&quot;&gt;Mediana (valor central) = 4&lt;/font&gt;" style="text;html=1;strokeColor=none;fillColor=none;align=center;verticalAlign=middle;whiteSpace=wrap;rounded=0;" vertex="1" parent="1">
          <mxGeometry x="490" y="300" width="150" height="50" as="geometry" />
        </mxCell>
        <mxCell id="eNsB-PMLN9mRBoNj7WUG-28" value="&lt;font style=&quot;font-size: 22px;&quot;&gt;N = 7&lt;/font&gt;" style="text;html=1;strokeColor=none;fillColor=none;align=center;verticalAlign=middle;whiteSpace=wrap;rounded=0;" vertex="1" parent="1">
          <mxGeometry x="160" y="80" width="60" height="30" as="geometry" />
        </mxCell>
        <mxCell id="eNsB-PMLN9mRBoNj7WUG-29" value="" style="shape=partialRectangle;whiteSpace=wrap;html=1;bottom=1;right=1;left=1;top=0;fillColor=none;routingCenterX=-0.5;" vertex="1" parent="1">
          <mxGeometry x="150" y="180" width="340" height="60" as="geometry" />
        </mxCell>
        <mxCell id="eNsB-PMLN9mRBoNj7WUG-30" value="&lt;font style=&quot;font-size: 22px;&quot;&gt;50% dos valores é igual ou inferior à mediana = 4&lt;/font&gt;" style="text;html=1;strokeColor=none;fillColor=none;align=center;verticalAlign=middle;whiteSpace=wrap;rounded=0;" vertex="1" parent="1">
          <mxGeometry x="220" y="200" width="200" height="190" as="geometry" />
        </mxCell>
        <mxCell id="eNsB-PMLN9mRBoNj7WUG-31" value="&lt;font style=&quot;font-size: 22px;&quot;&gt;50% dos valores é igual ou superior à mediana = 4&lt;/font&gt;" style="text;html=1;strokeColor=none;fillColor=none;align=center;verticalAlign=middle;whiteSpace=wrap;rounded=0;" vertex="1" parent="1">
          <mxGeometry x="700" y="200" width="200" height="190" as="geometry" />
        </mxCell>
        <mxCell id="eNsB-PMLN9mRBoNj7WUG-32" value="" style="shape=partialRectangle;whiteSpace=wrap;html=1;bottom=1;right=1;left=1;top=0;fillColor=none;routingCenterX=-0.5;" vertex="1" parent="1">
          <mxGeometry x="630" y="180" width="340" height="60" as="geometry" />
        </mxCell>
        <mxCell id="eNsB-PMLN9mRBoNj7WUG-33" value="&lt;span style=&quot;font-size: 22px;&quot;&gt;- N(igual ou superior à mediana) = 50% + 1 (o valor central) = 3 + 1 = 4 valores em 7 que são iguais ou superiores à mediana 4&lt;/span&gt;" style="text;html=1;strokeColor=none;fillColor=none;align=left;verticalAlign=middle;whiteSpace=wrap;rounded=0;" vertex="1" parent="1">
          <mxGeometry x="150" y="435" width="850" height="30" as="geometry" />
        </mxCell>
        <mxCell id="eNsB-PMLN9mRBoNj7WUG-37" value="&lt;font style=&quot;font-size: 22px;&quot;&gt;- Valor de referência para obtenção de empatia = 3 (igual ou superior)&lt;/font&gt;" style="text;html=1;strokeColor=none;fillColor=none;align=left;verticalAlign=middle;whiteSpace=wrap;rounded=0;" vertex="1" parent="1">
          <mxGeometry x="150" y="480" width="760" height="30" as="geometry" />
        </mxCell>
        <mxCell id="eNsB-PMLN9mRBoNj7WUG-38" value="" style="shape=partialRectangle;whiteSpace=wrap;html=1;bottom=1;right=1;left=1;top=0;fillColor=none;routingCenterX=-0.5;" vertex="1" parent="1">
          <mxGeometry x="150" y="300" width="820" height="60" as="geometry" />
        </mxCell>
        <mxCell id="eNsB-PMLN9mRBoNj7WUG-39" value="&lt;font style=&quot;font-size: 22px;&quot;&gt;- Há 5 valores em 7 que são iguais ou superiores a 3, valor de referência para a média da pontuação de empatia&amp;nbsp;&lt;/font&gt;" style="text;html=1;strokeColor=none;fillColor=none;align=left;verticalAlign=middle;whiteSpace=wrap;rounded=0;" vertex="1" parent="1">
          <mxGeometry x="150" y="560" width="830" height="30" as="geometry" />
        </mxCell>
        <mxCell id="eNsB-PMLN9mRBoNj7WUG-41" value="&lt;span style=&quot;font-size: 22px;&quot;&gt;DEFINIÇÃO DE MEDIANA&lt;/span&gt;" style="text;html=1;strokeColor=none;fillColor=none;align=center;verticalAlign=middle;whiteSpace=wrap;rounded=0;" vertex="1" parent="1">
          <mxGeometry x="150" y="370" width="820" height="30" as="geometry" />
        </mxCell>
        <mxCell id="eNsB-PMLN9mRBoNj7WUG-42" value="&lt;font style=&quot;font-size: 22px;&quot;&gt;- Como há 4 valores em 7 (maioria) que são iguais ou inferiores à mediana (4), há 5 valores em 7 (maioria) que são iguais ou superiores ao valor de referência 3 e o valor da mediana &amp;gt;= valor de referência, a ocorrência deste valor de mediana fará com que o valor final da empatia&amp;nbsp; (médio) tenda a ficar próximo de 3&lt;/font&gt;" style="text;html=1;strokeColor=none;fillColor=none;align=left;verticalAlign=middle;whiteSpace=wrap;rounded=0;" vertex="1" parent="1">
          <mxGeometry x="150" y="638" width="830" height="30" as="geometry" />
        </mxCell>
        <mxCell id="eNsB-PMLN9mRBoNj7WUG-44" value="&lt;span style=&quot;font-size: 22px;&quot;&gt;&lt;b&gt;EXEMPLO DE PIOR CASO (em que mediana seja um valor igual ou superior a 3)&lt;/b&gt;&lt;/span&gt;" style="text;html=1;strokeColor=none;fillColor=none;align=left;verticalAlign=middle;whiteSpace=wrap;rounded=0;" vertex="1" parent="1">
          <mxGeometry x="150" y="717" width="850" height="30" as="geometry" />
        </mxCell>
        <mxCell id="eNsB-PMLN9mRBoNj7WUG-45" value="" style="endArrow=none;html=1;rounded=0;" edge="1" parent="1">
          <mxGeometry width="50" height="50" relative="1" as="geometry">
            <mxPoint x="165" y="817" as="sourcePoint" />
            <mxPoint x="245" y="817" as="targetPoint" />
          </mxGeometry>
        </mxCell>
        <mxCell id="eNsB-PMLN9mRBoNj7WUG-46" value="&lt;font style=&quot;font-size: 35px;&quot;&gt;1&lt;/font&gt;" style="edgeLabel;html=1;align=center;verticalAlign=middle;resizable=0;points=[];" vertex="1" connectable="0" parent="eNsB-PMLN9mRBoNj7WUG-45">
          <mxGeometry x="0.2417" y="1" relative="1" as="geometry">
            <mxPoint x="-10" y="-29" as="offset" />
          </mxGeometry>
        </mxCell>
        <mxCell id="eNsB-PMLN9mRBoNj7WUG-47" value="" style="endArrow=none;html=1;rounded=0;" edge="1" parent="1">
          <mxGeometry width="50" height="50" relative="1" as="geometry">
            <mxPoint x="285" y="817" as="sourcePoint" />
            <mxPoint x="365" y="817" as="targetPoint" />
          </mxGeometry>
        </mxCell>
        <mxCell id="eNsB-PMLN9mRBoNj7WUG-48" value="&lt;font style=&quot;font-size: 35px;&quot;&gt;1&lt;/font&gt;" style="edgeLabel;html=1;align=center;verticalAlign=middle;resizable=0;points=[];" vertex="1" connectable="0" parent="eNsB-PMLN9mRBoNj7WUG-47">
          <mxGeometry x="0.2417" y="1" relative="1" as="geometry">
            <mxPoint x="-10" y="-29" as="offset" />
          </mxGeometry>
        </mxCell>
        <mxCell id="eNsB-PMLN9mRBoNj7WUG-49" value="" style="endArrow=none;html=1;rounded=0;" edge="1" parent="1">
          <mxGeometry width="50" height="50" relative="1" as="geometry">
            <mxPoint x="405" y="817" as="sourcePoint" />
            <mxPoint x="485" y="817" as="targetPoint" />
          </mxGeometry>
        </mxCell>
        <mxCell id="eNsB-PMLN9mRBoNj7WUG-50" value="&lt;font style=&quot;font-size: 35px;&quot;&gt;1&lt;/font&gt;" style="edgeLabel;html=1;align=center;verticalAlign=middle;resizable=0;points=[];" vertex="1" connectable="0" parent="eNsB-PMLN9mRBoNj7WUG-49">
          <mxGeometry x="0.2417" y="1" relative="1" as="geometry">
            <mxPoint x="-10" y="-29" as="offset" />
          </mxGeometry>
        </mxCell>
        <mxCell id="eNsB-PMLN9mRBoNj7WUG-51" value="" style="endArrow=none;html=1;rounded=0;" edge="1" parent="1">
          <mxGeometry width="50" height="50" relative="1" as="geometry">
            <mxPoint x="525" y="817" as="sourcePoint" />
            <mxPoint x="605" y="817" as="targetPoint" />
          </mxGeometry>
        </mxCell>
        <mxCell id="eNsB-PMLN9mRBoNj7WUG-52" value="&lt;font style=&quot;font-size: 35px;&quot;&gt;3&lt;/font&gt;" style="edgeLabel;html=1;align=center;verticalAlign=middle;resizable=0;points=[];" vertex="1" connectable="0" parent="eNsB-PMLN9mRBoNj7WUG-51">
          <mxGeometry x="0.2417" y="1" relative="1" as="geometry">
            <mxPoint x="-10" y="-29" as="offset" />
          </mxGeometry>
        </mxCell>
        <mxCell id="eNsB-PMLN9mRBoNj7WUG-53" value="" style="endArrow=none;html=1;rounded=0;" edge="1" parent="1">
          <mxGeometry width="50" height="50" relative="1" as="geometry">
            <mxPoint x="645" y="817" as="sourcePoint" />
            <mxPoint x="725" y="817" as="targetPoint" />
          </mxGeometry>
        </mxCell>
        <mxCell id="eNsB-PMLN9mRBoNj7WUG-54" value="&lt;font style=&quot;font-size: 35px;&quot;&gt;3&lt;/font&gt;" style="edgeLabel;html=1;align=center;verticalAlign=middle;resizable=0;points=[];" vertex="1" connectable="0" parent="eNsB-PMLN9mRBoNj7WUG-53">
          <mxGeometry x="0.2417" y="1" relative="1" as="geometry">
            <mxPoint x="-10" y="-29" as="offset" />
          </mxGeometry>
        </mxCell>
        <mxCell id="eNsB-PMLN9mRBoNj7WUG-55" value="" style="endArrow=none;html=1;rounded=0;" edge="1" parent="1">
          <mxGeometry width="50" height="50" relative="1" as="geometry">
            <mxPoint x="765" y="817" as="sourcePoint" />
            <mxPoint x="845" y="817" as="targetPoint" />
          </mxGeometry>
        </mxCell>
        <mxCell id="eNsB-PMLN9mRBoNj7WUG-56" value="&lt;font style=&quot;font-size: 35px;&quot;&gt;3&lt;/font&gt;" style="edgeLabel;html=1;align=center;verticalAlign=middle;resizable=0;points=[];" vertex="1" connectable="0" parent="eNsB-PMLN9mRBoNj7WUG-55">
          <mxGeometry x="0.2417" y="1" relative="1" as="geometry">
            <mxPoint x="-10" y="-29" as="offset" />
          </mxGeometry>
        </mxCell>
        <mxCell id="eNsB-PMLN9mRBoNj7WUG-57" value="" style="endArrow=none;html=1;rounded=0;" edge="1" parent="1">
          <mxGeometry width="50" height="50" relative="1" as="geometry">
            <mxPoint x="885" y="817" as="sourcePoint" />
            <mxPoint x="965" y="817" as="targetPoint" />
          </mxGeometry>
        </mxCell>
        <mxCell id="eNsB-PMLN9mRBoNj7WUG-58" value="&lt;font style=&quot;font-size: 35px;&quot;&gt;3&lt;/font&gt;" style="edgeLabel;html=1;align=center;verticalAlign=middle;resizable=0;points=[];" vertex="1" connectable="0" parent="eNsB-PMLN9mRBoNj7WUG-57">
          <mxGeometry x="0.2417" y="1" relative="1" as="geometry">
            <mxPoint x="-10" y="-29" as="offset" />
          </mxGeometry>
        </mxCell>
        <mxCell id="eNsB-PMLN9mRBoNj7WUG-59" value="" style="shape=flexArrow;endArrow=classic;html=1;rounded=0;" edge="1" parent="1">
          <mxGeometry width="50" height="50" relative="1" as="geometry">
            <mxPoint x="564.41" y="897" as="sourcePoint" />
            <mxPoint x="564.41" y="827" as="targetPoint" />
          </mxGeometry>
        </mxCell>
        <mxCell id="eNsB-PMLN9mRBoNj7WUG-60" value="&lt;font style=&quot;font-size: 22px;&quot;&gt;Mediana (valor central) = 3&lt;/font&gt;" style="text;html=1;strokeColor=none;fillColor=none;align=center;verticalAlign=middle;whiteSpace=wrap;rounded=0;" vertex="1" parent="1">
          <mxGeometry x="495" y="917" width="150" height="50" as="geometry" />
        </mxCell>
        <mxCell id="eNsB-PMLN9mRBoNj7WUG-61" value="" style="shape=partialRectangle;whiteSpace=wrap;html=1;bottom=1;right=1;left=1;top=0;fillColor=none;routingCenterX=-0.5;" vertex="1" parent="1">
          <mxGeometry x="155" y="797" width="340" height="60" as="geometry" />
        </mxCell>
        <mxCell id="eNsB-PMLN9mRBoNj7WUG-62" value="&lt;font style=&quot;font-size: 22px;&quot;&gt;50% dos valores é igual ou inferior à mediana = 3&lt;/font&gt;" style="text;html=1;strokeColor=none;fillColor=none;align=center;verticalAlign=middle;whiteSpace=wrap;rounded=0;" vertex="1" parent="1">
          <mxGeometry x="225" y="817" width="200" height="190" as="geometry" />
        </mxCell>
        <mxCell id="eNsB-PMLN9mRBoNj7WUG-63" value="&lt;font style=&quot;font-size: 22px;&quot;&gt;50% dos valores é igual ou superior à mediana = 3&lt;/font&gt;" style="text;html=1;strokeColor=none;fillColor=none;align=center;verticalAlign=middle;whiteSpace=wrap;rounded=0;" vertex="1" parent="1">
          <mxGeometry x="705" y="817" width="200" height="190" as="geometry" />
        </mxCell>
        <mxCell id="eNsB-PMLN9mRBoNj7WUG-64" value="" style="shape=partialRectangle;whiteSpace=wrap;html=1;bottom=1;right=1;left=1;top=0;fillColor=none;routingCenterX=-0.5;" vertex="1" parent="1">
          <mxGeometry x="635" y="797" width="340" height="60" as="geometry" />
        </mxCell>
        <mxCell id="eNsB-PMLN9mRBoNj7WUG-66" value="&lt;span style=&quot;font-size: 22px;&quot;&gt;DEFINIÇÃO DE MEDIANA&lt;/span&gt;" style="text;html=1;strokeColor=none;fillColor=none;align=center;verticalAlign=middle;whiteSpace=wrap;rounded=0;" vertex="1" parent="1">
          <mxGeometry x="155" y="987" width="820" height="30" as="geometry" />
        </mxCell>
        <mxCell id="eNsB-PMLN9mRBoNj7WUG-67" value="&lt;font style=&quot;font-size: 22px;&quot;&gt;- Mediana = 4 e Mediana =&amp;gt; 3 (neste caso, 4 é superior a 3), valor de referência&lt;/font&gt;" style="text;html=1;strokeColor=none;fillColor=none;align=left;verticalAlign=middle;whiteSpace=wrap;rounded=0;" vertex="1" parent="1">
          <mxGeometry x="150" y="512" width="800" height="30" as="geometry" />
        </mxCell>
        <mxCell id="eNsB-PMLN9mRBoNj7WUG-68" value="&lt;span style=&quot;font-size: 22px;&quot;&gt;- N(igual ou superior à mediana) = 50% + 1 (o valor central) = 3 + 1 = 4 valores em 7 que são iguais ou supeiores à mediana 3&lt;/span&gt;" style="text;html=1;strokeColor=none;fillColor=none;align=left;verticalAlign=middle;whiteSpace=wrap;rounded=0;" vertex="1" parent="1">
          <mxGeometry x="160" y="1040" width="850" height="30" as="geometry" />
        </mxCell>
        <mxCell id="eNsB-PMLN9mRBoNj7WUG-69" value="&lt;font style=&quot;font-size: 22px;&quot;&gt;- Valor de referência para obtenção de empatia = 3 (igual ou superior)&lt;/font&gt;" style="text;html=1;strokeColor=none;fillColor=none;align=left;verticalAlign=middle;whiteSpace=wrap;rounded=0;" vertex="1" parent="1">
          <mxGeometry x="160" y="1080" width="710" height="30" as="geometry" />
        </mxCell>
        <mxCell id="eNsB-PMLN9mRBoNj7WUG-70" value="&lt;font style=&quot;font-size: 22px;&quot;&gt;- Há 4 valores em 7 que são iguais ou superiores a 3, valor de referência para a média da pontuação de empatia&amp;nbsp;&lt;/font&gt;" style="text;html=1;strokeColor=none;fillColor=none;align=left;verticalAlign=middle;whiteSpace=wrap;rounded=0;" vertex="1" parent="1">
          <mxGeometry x="160" y="1160" width="830" height="30" as="geometry" />
        </mxCell>
        <mxCell id="eNsB-PMLN9mRBoNj7WUG-72" value="&lt;font style=&quot;font-size: 22px;&quot;&gt;- Mediana = 3 e Mediana =&amp;gt; 3 (neste caso, 3 é igual a 3), valor de referência&lt;/font&gt;" style="text;html=1;strokeColor=none;fillColor=none;align=left;verticalAlign=middle;whiteSpace=wrap;rounded=0;" vertex="1" parent="1">
          <mxGeometry x="160" y="1112" width="800" height="30" as="geometry" />
        </mxCell>
        <mxCell id="eNsB-PMLN9mRBoNj7WUG-73" value="&lt;font style=&quot;font-size: 22px;&quot;&gt;N = 7&lt;/font&gt;" style="text;html=1;strokeColor=none;fillColor=none;align=center;verticalAlign=middle;whiteSpace=wrap;rounded=0;" vertex="1" parent="1">
          <mxGeometry x="150" y="749" width="60" height="30" as="geometry" />
        </mxCell>
        <mxCell id="eNsB-PMLN9mRBoNj7WUG-74" value="" style="shape=partialRectangle;whiteSpace=wrap;html=1;bottom=1;right=1;left=1;top=0;fillColor=none;routingCenterX=-0.5;" vertex="1" parent="1">
          <mxGeometry x="150" y="1558" width="820" height="60" as="geometry" />
        </mxCell>
        <mxCell id="eNsB-PMLN9mRBoNj7WUG-75" value="&lt;span style=&quot;font-size: 22px;&quot;&gt;&lt;b&gt;EXEMPLO DE MELHOR CASO (em que mediana seja um valor igual ou superior a 3)&lt;/b&gt;&lt;/span&gt;" style="text;html=1;strokeColor=none;fillColor=none;align=left;verticalAlign=middle;whiteSpace=wrap;rounded=0;" vertex="1" parent="1">
          <mxGeometry x="145" y="1342" width="850" height="30" as="geometry" />
        </mxCell>
        <mxCell id="eNsB-PMLN9mRBoNj7WUG-76" value="" style="endArrow=none;html=1;rounded=0;" edge="1" parent="1">
          <mxGeometry width="50" height="50" relative="1" as="geometry">
            <mxPoint x="160" y="1458" as="sourcePoint" />
            <mxPoint x="240" y="1458" as="targetPoint" />
          </mxGeometry>
        </mxCell>
        <mxCell id="eNsB-PMLN9mRBoNj7WUG-77" value="&lt;font style=&quot;font-size: 35px;&quot;&gt;3&lt;/font&gt;" style="edgeLabel;html=1;align=center;verticalAlign=middle;resizable=0;points=[];" vertex="1" connectable="0" parent="eNsB-PMLN9mRBoNj7WUG-76">
          <mxGeometry x="0.2417" y="1" relative="1" as="geometry">
            <mxPoint x="-10" y="-29" as="offset" />
          </mxGeometry>
        </mxCell>
        <mxCell id="eNsB-PMLN9mRBoNj7WUG-78" value="" style="endArrow=none;html=1;rounded=0;" edge="1" parent="1">
          <mxGeometry width="50" height="50" relative="1" as="geometry">
            <mxPoint x="280" y="1458" as="sourcePoint" />
            <mxPoint x="360" y="1458" as="targetPoint" />
          </mxGeometry>
        </mxCell>
        <mxCell id="eNsB-PMLN9mRBoNj7WUG-79" value="&lt;font style=&quot;font-size: 35px;&quot;&gt;3&lt;/font&gt;" style="edgeLabel;html=1;align=center;verticalAlign=middle;resizable=0;points=[];" vertex="1" connectable="0" parent="eNsB-PMLN9mRBoNj7WUG-78">
          <mxGeometry x="0.2417" y="1" relative="1" as="geometry">
            <mxPoint x="-10" y="-29" as="offset" />
          </mxGeometry>
        </mxCell>
        <mxCell id="eNsB-PMLN9mRBoNj7WUG-80" value="" style="endArrow=none;html=1;rounded=0;" edge="1" parent="1">
          <mxGeometry width="50" height="50" relative="1" as="geometry">
            <mxPoint x="400" y="1458" as="sourcePoint" />
            <mxPoint x="480" y="1458" as="targetPoint" />
          </mxGeometry>
        </mxCell>
        <mxCell id="eNsB-PMLN9mRBoNj7WUG-81" value="&lt;font style=&quot;font-size: 35px;&quot;&gt;3&lt;/font&gt;" style="edgeLabel;html=1;align=center;verticalAlign=middle;resizable=0;points=[];" vertex="1" connectable="0" parent="eNsB-PMLN9mRBoNj7WUG-80">
          <mxGeometry x="0.2417" y="1" relative="1" as="geometry">
            <mxPoint x="-10" y="-29" as="offset" />
          </mxGeometry>
        </mxCell>
        <mxCell id="eNsB-PMLN9mRBoNj7WUG-82" value="" style="endArrow=none;html=1;rounded=0;" edge="1" parent="1">
          <mxGeometry width="50" height="50" relative="1" as="geometry">
            <mxPoint x="520" y="1458" as="sourcePoint" />
            <mxPoint x="600" y="1458" as="targetPoint" />
          </mxGeometry>
        </mxCell>
        <mxCell id="eNsB-PMLN9mRBoNj7WUG-83" value="&lt;font style=&quot;font-size: 35px;&quot;&gt;5&lt;/font&gt;" style="edgeLabel;html=1;align=center;verticalAlign=middle;resizable=0;points=[];" vertex="1" connectable="0" parent="eNsB-PMLN9mRBoNj7WUG-82">
          <mxGeometry x="0.2417" y="1" relative="1" as="geometry">
            <mxPoint x="-10" y="-29" as="offset" />
          </mxGeometry>
        </mxCell>
        <mxCell id="eNsB-PMLN9mRBoNj7WUG-84" value="" style="endArrow=none;html=1;rounded=0;" edge="1" parent="1">
          <mxGeometry width="50" height="50" relative="1" as="geometry">
            <mxPoint x="640" y="1458" as="sourcePoint" />
            <mxPoint x="720" y="1458" as="targetPoint" />
          </mxGeometry>
        </mxCell>
        <mxCell id="eNsB-PMLN9mRBoNj7WUG-85" value="&lt;font style=&quot;font-size: 35px;&quot;&gt;5&lt;/font&gt;" style="edgeLabel;html=1;align=center;verticalAlign=middle;resizable=0;points=[];" vertex="1" connectable="0" parent="eNsB-PMLN9mRBoNj7WUG-84">
          <mxGeometry x="0.2417" y="1" relative="1" as="geometry">
            <mxPoint x="-10" y="-29" as="offset" />
          </mxGeometry>
        </mxCell>
        <mxCell id="eNsB-PMLN9mRBoNj7WUG-86" value="" style="endArrow=none;html=1;rounded=0;" edge="1" parent="1">
          <mxGeometry width="50" height="50" relative="1" as="geometry">
            <mxPoint x="760" y="1458" as="sourcePoint" />
            <mxPoint x="840" y="1458" as="targetPoint" />
          </mxGeometry>
        </mxCell>
        <mxCell id="eNsB-PMLN9mRBoNj7WUG-87" value="&lt;font style=&quot;font-size: 35px;&quot;&gt;5&lt;/font&gt;" style="edgeLabel;html=1;align=center;verticalAlign=middle;resizable=0;points=[];" vertex="1" connectable="0" parent="eNsB-PMLN9mRBoNj7WUG-86">
          <mxGeometry x="0.2417" y="1" relative="1" as="geometry">
            <mxPoint x="-10" y="-29" as="offset" />
          </mxGeometry>
        </mxCell>
        <mxCell id="eNsB-PMLN9mRBoNj7WUG-88" value="" style="endArrow=none;html=1;rounded=0;" edge="1" parent="1">
          <mxGeometry width="50" height="50" relative="1" as="geometry">
            <mxPoint x="880" y="1458" as="sourcePoint" />
            <mxPoint x="960" y="1458" as="targetPoint" />
          </mxGeometry>
        </mxCell>
        <mxCell id="eNsB-PMLN9mRBoNj7WUG-89" value="&lt;font style=&quot;font-size: 35px;&quot;&gt;5&lt;/font&gt;" style="edgeLabel;html=1;align=center;verticalAlign=middle;resizable=0;points=[];" vertex="1" connectable="0" parent="eNsB-PMLN9mRBoNj7WUG-88">
          <mxGeometry x="0.2417" y="1" relative="1" as="geometry">
            <mxPoint x="-10" y="-29" as="offset" />
          </mxGeometry>
        </mxCell>
        <mxCell id="eNsB-PMLN9mRBoNj7WUG-90" value="" style="shape=flexArrow;endArrow=classic;html=1;rounded=0;" edge="1" parent="1">
          <mxGeometry width="50" height="50" relative="1" as="geometry">
            <mxPoint x="559.41" y="1538" as="sourcePoint" />
            <mxPoint x="559.41" y="1468" as="targetPoint" />
          </mxGeometry>
        </mxCell>
        <mxCell id="eNsB-PMLN9mRBoNj7WUG-91" value="&lt;font style=&quot;font-size: 22px;&quot;&gt;Mediana (valor central) = 5&lt;/font&gt;" style="text;html=1;strokeColor=none;fillColor=none;align=center;verticalAlign=middle;whiteSpace=wrap;rounded=0;" vertex="1" parent="1">
          <mxGeometry x="490" y="1558" width="150" height="50" as="geometry" />
        </mxCell>
        <mxCell id="eNsB-PMLN9mRBoNj7WUG-92" value="" style="shape=partialRectangle;whiteSpace=wrap;html=1;bottom=1;right=1;left=1;top=0;fillColor=none;routingCenterX=-0.5;" vertex="1" parent="1">
          <mxGeometry x="150" y="1438" width="340" height="60" as="geometry" />
        </mxCell>
        <mxCell id="eNsB-PMLN9mRBoNj7WUG-93" value="&lt;font style=&quot;font-size: 22px;&quot;&gt;50% dos valores é igual ou inferior à mediana = 5&lt;/font&gt;" style="text;html=1;strokeColor=none;fillColor=none;align=center;verticalAlign=middle;whiteSpace=wrap;rounded=0;" vertex="1" parent="1">
          <mxGeometry x="220" y="1458" width="200" height="190" as="geometry" />
        </mxCell>
        <mxCell id="eNsB-PMLN9mRBoNj7WUG-94" value="&lt;font style=&quot;font-size: 22px;&quot;&gt;50% dos valores é igual ou superior à mediana = 5&lt;/font&gt;" style="text;html=1;strokeColor=none;fillColor=none;align=center;verticalAlign=middle;whiteSpace=wrap;rounded=0;" vertex="1" parent="1">
          <mxGeometry x="700" y="1458" width="200" height="190" as="geometry" />
        </mxCell>
        <mxCell id="eNsB-PMLN9mRBoNj7WUG-95" value="" style="shape=partialRectangle;whiteSpace=wrap;html=1;bottom=1;right=1;left=1;top=0;fillColor=none;routingCenterX=-0.5;" vertex="1" parent="1">
          <mxGeometry x="630" y="1438" width="340" height="60" as="geometry" />
        </mxCell>
        <mxCell id="eNsB-PMLN9mRBoNj7WUG-96" value="&lt;span style=&quot;font-size: 22px;&quot;&gt;DEFINIÇÃO DE MEDIANA&lt;/span&gt;" style="text;html=1;strokeColor=none;fillColor=none;align=center;verticalAlign=middle;whiteSpace=wrap;rounded=0;" vertex="1" parent="1">
          <mxGeometry x="150" y="1628" width="820" height="30" as="geometry" />
        </mxCell>
        <mxCell id="eNsB-PMLN9mRBoNj7WUG-97" value="&lt;span style=&quot;font-size: 22px;&quot;&gt;- N(igual ou superior à mediana) = 50% + 1 (o valor central) = 3 + 1 = 4 valores em 7 que são iguais ou superioes à mediana 5&lt;/span&gt;" style="text;html=1;strokeColor=none;fillColor=none;align=left;verticalAlign=middle;whiteSpace=wrap;rounded=0;" vertex="1" parent="1">
          <mxGeometry x="155" y="1681" width="850" height="30" as="geometry" />
        </mxCell>
        <mxCell id="eNsB-PMLN9mRBoNj7WUG-98" value="&lt;font style=&quot;font-size: 22px;&quot;&gt;- Valor de referência para obtenção de empatia = 3 (igual ou superior)&lt;/font&gt;" style="text;html=1;strokeColor=none;fillColor=none;align=left;verticalAlign=middle;whiteSpace=wrap;rounded=0;" vertex="1" parent="1">
          <mxGeometry x="155" y="1721" width="745" height="30" as="geometry" />
        </mxCell>
        <mxCell id="eNsB-PMLN9mRBoNj7WUG-99" value="&lt;font style=&quot;font-size: 22px;&quot;&gt;- Há 7 valores em 7 que são iguais ou superiores a 3, valor de referência para a média da pontuação de empatia&amp;nbsp;&lt;/font&gt;" style="text;html=1;strokeColor=none;fillColor=none;align=left;verticalAlign=middle;whiteSpace=wrap;rounded=0;" vertex="1" parent="1">
          <mxGeometry x="155" y="1801" width="830" height="30" as="geometry" />
        </mxCell>
        <mxCell id="eNsB-PMLN9mRBoNj7WUG-101" value="&lt;font style=&quot;font-size: 22px;&quot;&gt;- Mediana = 5 e Mediana =&amp;gt; 3 (neste caso, 5 é superior a 3), valor de referência&lt;/font&gt;" style="text;html=1;strokeColor=none;fillColor=none;align=left;verticalAlign=middle;whiteSpace=wrap;rounded=0;" vertex="1" parent="1">
          <mxGeometry x="155" y="1753" width="800" height="30" as="geometry" />
        </mxCell>
        <mxCell id="eNsB-PMLN9mRBoNj7WUG-102" value="&lt;font style=&quot;font-size: 22px;&quot;&gt;N = 7&lt;/font&gt;" style="text;html=1;strokeColor=none;fillColor=none;align=center;verticalAlign=middle;whiteSpace=wrap;rounded=0;" vertex="1" parent="1">
          <mxGeometry x="145" y="1379" width="60" height="30" as="geometry" />
        </mxCell>
        <mxCell id="eNsB-PMLN9mRBoNj7WUG-103" value="&lt;font style=&quot;font-size: 22px;&quot;&gt;- Como há 4 valores em 7 (maioria) que são iguais ou inferiores à mediana (3), há 4 valores em 7 (maioria) que são iguais ou superiores ao valor de referência 3 e o valor da mediana &amp;gt;= valor de referência, a ocorrência deste valor de mediana fará com que o valor final da empatia&amp;nbsp; (médio) tenda a ficar próximo de 3&lt;/font&gt;" style="text;html=1;strokeColor=none;fillColor=none;align=left;verticalAlign=middle;whiteSpace=wrap;rounded=0;" vertex="1" parent="1">
          <mxGeometry x="160" y="1241" width="830" height="30" as="geometry" />
        </mxCell>
        <mxCell id="eNsB-PMLN9mRBoNj7WUG-104" value="&lt;font style=&quot;font-size: 22px;&quot;&gt;- Como há 4 valores em 7 (maioria) que são iguais ou inferiores à mediana (5), há 7 valores em 7 (maioria) que são iguais ou superiores ao valor de referência 3 e o valor da mediana &amp;gt;= valor de referência, a ocorrência deste valor de mediana fará com que o valor final da empatia&amp;nbsp; (médio) tenda a ficar próximo de 3&lt;/font&gt;" style="text;html=1;strokeColor=none;fillColor=none;align=left;verticalAlign=middle;whiteSpace=wrap;rounded=0;" vertex="1" parent="1">
          <mxGeometry x="150" y="1890" width="830" height="30" as="geometry" />
        </mxCell>
      </root>
    </mxGraphModel>
  </diagram>
</mxfile>
